<svg width="640" height="640" viewBox="0 0 640 640" fill="none" xmlns="http://www.w3.org/2000/svg">
  <rect width="640" height="640" rx="28" fill="#F8FAFC"/>
  <rect x="36" y="36" width="568" height="568" rx="24" fill="white" stroke="#0F172A" stroke-width="12"/>
  <rect x="76" y="76" width="488" height="84" rx="16" fill="#111827"/>
  <text x="320" y="128" text-anchor="middle" font-family="Arial, Helvetica, sans-serif" font-size="42" font-weight="700" fill="white">QRIS PEMBAYARAN</text>

  <rect x="98" y="190" width="444" height="444" rx="20" fill="#F1F5F9" stroke="#CBD5E1" stroke-width="8"/>

  <rect x="126" y="218" width="88" height="88" fill="#0F172A"/>
  <rect x="142" y="234" width="56" height="56" fill="white"/>
  <rect x="154" y="246" width="32" height="32" fill="#0F172A"/>

  <rect x="426" y="218" width="88" height="88" fill="#0F172A"/>
  <rect x="442" y="234" width="56" height="56" fill="white"/>
  <rect x="454" y="246" width="32" height="32" fill="#0F172A"/>

  <rect x="126" y="518" width="88" height="88" fill="#0F172A"/>
  <rect x="142" y="534" width="56" height="56" fill="white"/>
  <rect x="154" y="546" width="32" height="32" fill="#0F172A"/>

  <rect x="252" y="220" width="20" height="20" fill="#0F172A"/>
  <rect x="284" y="220" width="20" height="20" fill="#0F172A"/>
  <rect x="316" y="220" width="20" height="20" fill="#0F172A"/>
  <rect x="348" y="220" width="20" height="20" fill="#0F172A"/>
  <rect x="252" y="252" width="20" height="20" fill="#0F172A"/>
  <rect x="316" y="252" width="20" height="20" fill="#0F172A"/>
  <rect x="380" y="252" width="20" height="20" fill="#0F172A"/>
  <rect x="252" y="284" width="20" height="20" fill="#0F172A"/>
  <rect x="284" y="284" width="20" height="20" fill="#0F172A"/>
  <rect x="348" y="284" width="20" height="20" fill="#0F172A"/>
  <rect x="380" y="284" width="20" height="20" fill="#0F172A"/>
  <rect x="220" y="316" width="20" height="20" fill="#0F172A"/>
  <rect x="284" y="316" width="20" height="20" fill="#0F172A"/>
  <rect x="316" y="316" width="20" height="20" fill="#0F172A"/>
  <rect x="348" y="316" width="20" height="20" fill="#0F172A"/>
  <rect x="412" y="316" width="20" height="20" fill="#0F172A"/>
  <rect x="220" y="348" width="20" height="20" fill="#0F172A"/>
  <rect x="252" y="348" width="20" height="20" fill="#0F172A"/>
  <rect x="316" y="348" width="20" height="20" fill="#0F172A"/>
  <rect x="380" y="348" width="20" height="20" fill="#0F172A"/>
  <rect x="412" y="348" width="20" height="20" fill="#0F172A"/>
  <rect x="252" y="380" width="20" height="20" fill="#0F172A"/>
  <rect x="284" y="380" width="20" height="20" fill="#0F172A"/>
  <rect x="348" y="380" width="20" height="20" fill="#0F172A"/>
  <rect x="380" y="380" width="20" height="20" fill="#0F172A"/>
  <rect x="220" y="412" width="20" height="20" fill="#0F172A"/>
  <rect x="284" y="412" width="20" height="20" fill="#0F172A"/>
  <rect x="316" y="412" width="20" height="20" fill="#0F172A"/>
  <rect x="412" y="412" width="20" height="20" fill="#0F172A"/>
  <rect x="220" y="444" width="20" height="20" fill="#0F172A"/>
  <rect x="252" y="444" width="20" height="20" fill="#0F172A"/>
  <rect x="348" y="444" width="20" height="20" fill="#0F172A"/>
  <rect x="380" y="444" width="20" height="20" fill="#0F172A"/>
  <rect x="412" y="444" width="20" height="20" fill="#0F172A"/>
  <rect x="252" y="476" width="20" height="20" fill="#0F172A"/>
  <rect x="316" y="476" width="20" height="20" fill="#0F172A"/>
  <rect x="348" y="476" width="20" height="20" fill="#0F172A"/>
  <rect x="380" y="476" width="20" height="20" fill="#0F172A"/>

  <text x="320" y="622" text-anchor="middle" font-family="Arial, Helvetica, sans-serif" font-size="24" font-weight="600" fill="#334155">Scan untuk pembayaran denda</text>
</svg>
